# xmcd
#
# Track frame offsets:
#	150
#	13270
#	26911
#	41527
#	55102
#	69733
#	83251
#	95539
#	107455
#	120838
#	134335
#	147973
#	160378
#	172789
#	185719
#	198862
#	214006
#	230203
#
# Disc length: 3240 seconds
#
# Revision: 1
# Processed by: cddbd v1.5.1PL2 Copyright (c) Steve Scherf et al.
# Submitted via: EasyCDDAExtractor 6.2.0.3
#
DISCID=f20ca612
DTITLE=Various Artist - 10 Blues Legends CD 8
DYEAR=1900
DGENRE=
TTITLE0=Lonnie Johnson - Mean Old Bedbug Blues
TTITLE1=Lonnie Johnson - Have To Change Keys (To Play This Blues)
TTITLE2=Lonnie Johnson - Guitar Blues
TTITLE3=Lonnie Johnson - Playing With The Strings
TTITLE4=Lonnie Johnson - No More Trouble Now
TTITLE5=Lonnie Johnson - 6/88 Glide
TTITLE6=Lonnie Johnson - Flood Water
TTITLE7=Lonnie Johnson - Swing Out Rhythm
TTITLE8=Lonnie Johnson - Hot Springs Blues (Skin And Bones)
TTITLE9=Lonnie Johnson - I'm Not Rough
TTITLE10=Blind Blake - Blind Arthur Breakdown
TTITLE11=Blind Blake - You're Gonna Quit Me Baby
TTITLE12=Blind Blake - Dry Bone Shuffle
TTITLE13=Blind Blake - Southern Rag
TTITLE14=Blind Blake - Too Tight Blues
TTITLE15=Blind Blake - Georgia Bound
TTITLE16=Blind Blake - Depression's Gone from Me Blues
TTITLE17=Blind Blake - Police Dog Blues
EXTD=
EXTT0=
EXTT1=
EXTT2=
EXTT3=
EXTT4=
EXTT5=
EXTT6=
EXTT7=
EXTT8=
EXTT9=
EXTT10=
EXTT11=
EXTT12=
EXTT13=
EXTT14=
EXTT15=
EXTT16=
EXTT17=
PLAYORDER=
